<svg width="21" height="25" viewBox="0 0 21 25" fill="none" xmlns="http://www.w3.org/2000/svg">
<path d="M20.5934 13.5937C20.5002 13.574 18.6874 13.2053 16.4836 13.5897C16.6614 13.4281 16.8337 13.2631 16.9999 13.0943C19.7506 10.3013 20.6763 6.77318 20.7144 6.6244C20.7598 6.44676 20.7092 6.25814 20.5815 6.12841C20.4538 5.99867 20.268 5.94745 20.093 5.9934C19.9465 6.03202 16.4718 6.97142 13.7205 9.76443C13.3433 10.1474 13.0007 10.5443 12.6897 10.9443C12.8588 10.0584 12.9692 9.09188 12.9692 8.07674C12.9692 7.54022 12.9375 6.98793 12.8751 6.43534C12.843 6.1514 12.5905 5.94711 12.3106 5.98016C12.0309 6.01273 11.8302 6.26932 11.8623 6.55331C11.9203 7.06688 11.9497 7.57943 11.9497 8.07674C11.9497 10.8218 11.0582 13.2393 10.5 14.4839C9.94169 13.2392 9.05018 10.8218 9.05018 8.07674C9.05018 5.33017 9.94289 2.91147 10.501 1.66777C10.6993 2.108 10.9393 2.69565 11.1666 3.39404C11.2548 3.66542 11.5429 3.81283 11.8104 3.72314C12.0777 3.63354 12.2228 3.34081 12.1345 3.06943C11.5842 1.37759 10.9654 0.300292 10.9394 0.255273C10.8478 0.0970701 10.6806 0 10.4999 0C10.3192 0 10.152 0.097119 10.0605 0.255322C9.97761 0.398486 8.0307 3.81044 8.0307 8.07679C8.0307 9.09193 8.14106 10.0585 8.31014 10.9443C7.99915 10.5443 7.65652 10.1474 7.27932 9.76443C4.52803 6.97147 1.05339 6.03207 0.906813 5.99345C0.731915 5.9473 0.546052 5.99882 0.418329 6.12845C0.290606 6.25819 0.240017 6.44686 0.285461 6.62445C0.323547 6.77323 1.24916 10.3013 3.99992 13.0944C4.16611 13.2631 4.33846 13.4282 4.51629 13.5898C2.31244 13.2053 0.499695 13.5741 0.406451 13.5938C0.229534 13.631 0.0851717 13.7605 0.0270807 13.9341C-0.0310103 14.1078 0.00577747 14.2997 0.123787 14.4386C0.200536 14.529 2.03699 16.6631 4.89374 17.6486C5.27537 17.7804 5.65503 17.8834 6.02647 17.9645C4.03743 18.834 2.81275 20.3897 2.75967 20.4582C2.64776 20.6022 2.61939 20.7957 2.68498 20.9666C2.75062 21.1376 2.90042 21.2604 3.07883 21.2896C3.11797 21.296 3.55361 21.3646 4.21295 21.3646C5.03603 21.3646 6.20757 21.2577 7.39112 20.7896C8.49692 20.3521 9.38406 19.6898 9.99031 19.1434V24.4825C9.99031 24.7683 10.2185 25 10.5 25C10.7815 25 11.0097 24.7683 11.0097 24.4825V19.1433C11.6159 19.6898 12.5031 20.3521 13.609 20.7896C14.7926 21.2577 15.964 21.3645 16.7871 21.3645C17.4462 21.3645 17.8821 21.296 17.9212 21.2896C18.0996 21.2604 18.2494 21.1375 18.3151 20.9666C18.3807 20.7956 18.3523 20.6022 18.2404 20.4581C18.1873 20.3898 16.9626 18.834 14.9735 17.9645C15.3449 17.8833 15.7245 17.7803 16.1062 17.6486C18.9631 16.663 20.7995 14.5289 20.8762 14.4386C20.9942 14.2997 21.031 14.1077 20.9729 13.9341C20.9147 13.7604 20.7703 13.6309 20.5934 13.5937ZM14.4412 10.4964C16.1615 8.75003 18.2358 7.77015 19.4128 7.31493C18.9643 8.51014 17.999 10.6162 16.2791 12.3624C15.421 13.2338 14.3887 14.0057 13.2112 14.6568C12.4789 15.0617 11.8104 15.3519 11.3062 15.5461C11.7524 14.353 12.7154 12.2488 14.4412 10.4964ZM1.58707 7.31493C2.76423 7.77025 4.83849 8.75013 6.55857 10.4964C8.27922 12.2435 9.24441 14.3509 9.69245 15.5456C9.18834 15.3514 8.52034 15.0614 7.78877 14.6569C6.61117 14.0058 5.579 13.2338 4.72081 12.3624C3.00073 10.616 2.0355 8.50999 1.58707 7.31493ZM1.6205 14.483C2.60617 14.412 4.18814 14.4272 5.78742 14.9791C6.28114 15.1494 6.77727 15.3714 7.26215 15.6392C8.16607 16.138 8.89538 16.7187 9.39021 17.1648C9.27975 17.1727 9.16174 17.1796 9.03695 17.1848C9.03691 17.1848 9.03681 17.1848 9.03676 17.1848C8.09273 17.2244 6.66455 17.1667 5.22175 16.6686C3.62762 16.1186 2.36135 15.1499 1.6205 14.483ZM7.02094 19.8251C6.02728 20.2181 5.02468 20.3188 4.30191 20.3266C4.8394 19.8358 5.64474 19.221 6.63834 18.8277C7.37424 18.5364 8.1967 18.3694 9.0823 18.3315C9.17934 18.3275 9.27278 18.3253 9.36198 18.3244C8.82618 18.8147 8.02089 19.4295 7.02094 19.8251ZM13.979 19.8252C12.984 19.4315 12.178 18.8159 11.6404 18.3247C11.7264 18.3256 11.8165 18.3277 11.9099 18.3316C12.7971 18.3682 13.622 18.5352 14.3615 18.8277C15.3562 19.2214 16.1623 19.8371 16.6997 20.3282C15.9787 20.3208 14.9774 20.22 13.979 19.8252ZM15.7781 16.6686C14.332 17.1676 12.9012 17.2245 11.9554 17.1848C11.9554 17.1848 11.9554 17.1848 11.9554 17.1848C11.8335 17.1796 11.7179 17.1728 11.6094 17.1649C12.1043 16.7188 12.8337 16.138 13.7378 15.6391C14.2225 15.3714 14.7187 15.1494 15.2125 14.9791C16.8059 14.4292 18.3901 14.4138 19.3779 14.4842C18.6368 15.1511 17.3711 16.119 15.7781 16.6686Z" fill="#B0C09E"/>
</svg>
