<svg width="209" height="222" viewBox="0 0 209 222" fill="none" xmlns="http://www.w3.org/2000/svg">
<g opacity="0.0670573">
<path d="M133.661 164.324C155.767 171.588 169.584 186.357 169.584 186.357C169.584 186.357 147.558 189.349 125.452 182.09C103.34 174.826 89.5239 160.056 89.5239 160.056C89.5239 160.056 95.8527 159.196 105.129 159.515C113.161 159.79 123.406 160.955 133.661 164.324Z" fill="#8FB84A"/>
<path d="M195.555 57.0022C195.555 57.0022 185.768 88.7744 156.491 113.456C145.283 122.905 132.843 129.947 121.755 135.036C103.88 143.242 89.5244 146.384 89.5244 146.384C89.5244 146.384 99.3044 114.612 128.583 89.9298C157.866 65.247 195.555 57.0022 195.555 57.0022Z" fill="#8FB84A"/>
<path d="M195.891 120.831C195.891 120.831 179.898 139.529 155.249 147.976C141.872 152.561 128.693 153.187 119.435 152.798C111.634 152.471 106.618 151.425 106.618 151.425C106.618 151.425 116.772 139.553 133.375 130.453C137.607 128.131 142.257 125.994 147.264 124.28C171.919 115.828 195.891 120.831 195.891 120.831Z" fill="#B5E06C"/>
<path d="M106.618 0.259644C106.618 0.259644 124.128 30.3044 124.128 67.3599C124.128 104.421 106.618 134.464 106.618 134.464C106.618 134.464 89.1084 104.42 89.1084 67.3599C89.1084 30.304 106.618 0.259644 106.618 0.259644Z" fill="#B5E06C"/>
<path d="M79.3708 89.9289C108.195 114.611 117.823 146.383 117.823 146.383C117.823 146.383 103.691 143.242 86.0929 135.035C75.1778 129.946 62.9306 122.905 51.8962 113.456C23.0729 88.7739 13.4385 57.0017 13.4385 57.0017C13.4385 57.0017 50.5413 65.247 79.3708 89.9289Z" fill="#8FB84A"/>
<path d="M117.823 160.056C117.823 160.056 104.221 174.825 82.4523 182.09C60.6894 189.349 39.0049 186.357 39.0049 186.357C39.0049 186.357 52.6066 171.587 74.3701 164.323C84.4331 160.964 94.4796 159.8 102.375 159.515C111.552 159.191 117.823 160.056 117.823 160.056Z" fill="#8FB84A"/>
<path d="M87.9289 129.578C107.829 139.076 120 151.468 120 151.468C120 151.468 113.954 152.565 104.553 152.901C93.4621 153.302 77.7057 152.645 61.7124 147.868C32.1691 139.051 13 119.534 13 119.534C13 119.534 41.7326 114.313 71.2825 123.134C77.2833 124.925 82.8567 127.155 87.9289 129.578Z" fill="#B5E06C"/>
<path d="M107.173 28.8144C107.332 29.3162 107.489 29.8225 107.643 30.3315C108.304 32.5181 110.882 34 113.737 34C114.197 34 114.665 33.9617 115.133 33.8812C118.502 33.3024 120.61 30.775 119.842 28.2356C119.678 27.6937 119.511 27.1554 119.342 26.6211C118.538 24.0884 115.162 22.5224 111.803 23.1314C108.442 23.7374 106.37 26.2817 107.173 28.8144Z" fill="black"/>
<path fill-rule="evenodd" clip-rule="evenodd" d="M204.953 120.712C204.026 120.538 185.984 117.263 164.051 120.677C165.821 119.242 167.536 117.776 169.19 116.277C196.566 91.4755 205.779 60.1458 206.158 58.8247C206.609 57.2473 206.106 55.5723 204.835 54.4202C203.564 53.2682 201.715 52.8133 199.974 53.2214C198.515 53.5643 163.934 61.9062 136.552 86.7082C132.797 90.1088 129.388 93.6331 126.293 97.1851C127.976 89.3188 129.074 80.7359 129.074 71.7215C129.074 66.9571 128.759 62.0528 128.138 57.1458C127.819 54.6245 125.305 52.8103 122.52 53.1039C119.736 53.3931 117.739 55.6716 118.058 58.1934C118.635 62.7539 118.928 67.3053 118.928 71.7215C118.928 96.0972 110.056 117.565 104.5 128.617C98.9435 117.564 90.0708 96.0972 90.0708 71.7215C90.0708 47.3319 98.9555 25.8538 104.51 14.8098C106.483 18.7191 108.872 23.9374 111.134 30.139C112.012 32.549 114.88 33.858 117.542 33.0615C120.202 32.2658 121.646 29.6664 120.767 27.2565C115.29 12.233 109.132 2.6666 108.873 2.26682C107.961 0.861983 106.297 0 104.499 0C102.701 0 101.037 0.862416 100.126 2.26726C99.301 3.53855 79.9246 33.8367 79.9246 71.7219C79.9246 80.7363 81.023 89.3193 82.7057 97.1855C79.6106 93.6335 76.2006 90.1093 72.4465 86.7082C45.0646 61.9067 10.4837 53.5648 9.02495 53.2218C7.28429 52.812 5.43452 53.2695 4.16337 54.4207C2.89222 55.5727 2.38874 57.2481 2.84101 58.8251C3.22006 60.1463 12.4321 91.476 39.8087 116.278C41.4627 117.776 43.178 119.242 44.9479 120.677C23.0143 117.263 4.97316 120.538 4.04516 120.713C2.28441 121.043 0.847661 122.193 0.269518 123.735C-0.308626 125.277 0.0574996 126.982 1.23197 128.215C1.99581 129.018 20.2729 147.968 48.7044 156.72C52.5025 157.89 56.281 158.805 59.9777 159.525C40.182 167.246 27.9936 181.061 27.4652 181.668C26.3515 182.948 26.0692 184.665 26.722 186.183C27.3753 187.701 28.8661 188.792 30.6417 189.052C31.0313 189.108 35.3669 189.717 41.9289 189.717C50.1205 189.717 61.7801 188.768 73.5593 184.612C84.5646 180.726 93.3937 174.845 99.4274 169.993V217.404C99.4274 219.942 101.698 222 104.5 222C107.302 222 109.573 219.942 109.573 217.404V169.993C115.606 174.845 124.435 180.726 135.442 184.612C147.221 188.769 158.879 189.717 167.071 189.717C173.631 189.717 177.969 189.108 178.359 189.051C180.134 188.792 181.625 187.701 182.279 186.183C182.931 184.665 182.649 182.947 181.535 181.668C181.007 181.061 168.818 167.246 149.022 159.524C152.718 158.804 156.497 157.889 160.295 156.72C188.728 147.967 207.004 129.017 207.768 128.215C208.942 126.981 209.309 125.277 208.73 123.734C208.151 122.192 206.714 121.042 204.953 120.712ZM143.725 93.2082C160.846 77.7003 181.49 68.9989 193.203 64.9566C188.74 75.57 179.133 94.2718 162.016 109.778C153.475 117.516 143.202 124.371 131.483 130.152C124.195 133.748 117.541 136.325 112.523 138.049C116.965 127.455 126.549 108.769 143.725 93.2082ZM65.2733 93.2077C48.1545 77.7011 27.5107 68.9998 15.7952 64.9566C20.2581 75.5687 29.8644 94.2705 46.9833 109.778C55.5243 117.516 65.7969 124.371 77.5168 130.153C84.7977 133.745 91.4458 136.32 96.4629 138.045C92.0039 127.436 82.398 108.722 65.2733 93.2077ZM16.1278 128.609C25.9376 127.979 41.6819 128.113 57.5986 133.015C62.5123 134.527 67.45 136.498 72.2757 138.876C81.2718 143.305 88.5302 148.462 93.455 152.424C92.3556 152.494 91.1812 152.555 89.9392 152.601C89.9387 152.601 89.9378 152.601 89.9373 152.601C80.542 152.953 66.3282 152.44 51.9689 148.017C36.1034 143.133 23.501 134.531 16.1278 128.609ZM42.8143 180.5C50.0076 180.431 59.9858 179.537 69.875 176.047C79.827 172.534 87.8415 167.074 93.174 162.72C92.2862 162.728 91.3563 162.748 90.3905 162.784C81.5767 163.121 73.3913 164.603 66.0673 167.19C56.1786 170.683 48.1635 176.141 42.8143 180.5ZM139.124 176.047C129.222 172.552 121.2 167.085 115.849 162.723C116.706 162.731 117.602 162.75 118.532 162.785C127.362 163.11 135.571 164.593 142.931 167.19C152.831 170.686 160.853 176.154 166.202 180.515C159.026 180.449 149.061 179.554 139.124 176.047ZM118.985 152.601C128.398 152.954 142.637 152.448 157.029 148.017C172.884 143.136 185.481 134.542 192.856 128.62C183.026 127.994 167.259 128.131 151.4 133.014C146.486 134.527 141.548 136.498 136.723 138.875C127.726 143.305 120.466 148.463 115.541 152.424C116.621 152.495 117.772 152.555 118.985 152.601H118.985Z" fill="#78A643"/>
</g>
</svg>
